<?xml version="1.0"?>

<!DOCTYPE svg PUBLIC '-//W3C//DTD SVG 1.0//EN' 'http://www.w3.org/TR/2001/REC-SVG-20010904/DTD/svg10.dtd'>
<svg fill-opacity="1" xmlns:xlink="http://www.w3.org/1999/xlink" color-rendering="auto" color-interpolation="auto" stroke="black" text-rendering="auto" stroke-linecap="square" stroke-miterlimit="10" stroke-opacity="1" shape-rendering="auto" fill="black" stroke-dasharray="none" font-weight="normal" stroke-width="1" xmlns="http://www.w3.org/2000/svg" font-family="&apos;Dialog&apos;" font-style="normal" stroke-linejoin="miter" font-size="12" stroke-dashoffset="0" image-rendering="auto">
  <!--Unicode Character 'COOKIE' (U+1F36A)-->
  <defs id="genericDefs" />
  <g>
    <g>
      <path d="M275.3438 207.7031 Q275.3438 215.0156 274.3594 219.2344 Q273.375 221.3438 271.9688 225.9844 Q271.5469 233.2969 269.5781 247.6406 Q269.0156 250.3125 266.0625 258.3281 Q256.3594 284.625 244.9688 297.4219 Q228.7969 315.4219 216.9844 319.0781 Q213.0469 319.9219 205.0312 321.8906 Q197.0156 324.8438 180.4219 329.2031 Q177.75 329.4844 172.4062 330.3281 Q170.8594 330.6094 162.2812 333.2812 Q156.0938 335.25 151.875 335.25 Q144.2812 335.25 138.375 333.8438 Q137.6719 333.7031 134.8594 332.5781 Q132.0469 331.4531 131.4844 331.4531 L115.4531 331.4531 Q115.1719 331.4531 111.7969 329.7656 Q108.4219 328.0781 107.7188 327.7969 Q101.8125 325.6875 89.8594 321.8906 Q83.6719 320.9062 71.5781 317.3906 Q68.2031 315.9844 64.2656 312.3281 Q58.6406 307.125 57.5156 306.2812 Q55.9688 305.4375 52.875 303.75 Q45 298.6875 37.8281 287.2969 Q32.3438 277.4531 26.7188 267.6094 Q23.3438 263.3906 18 254.1094 Q16.3125 249.75 13.7812 227.1094 Q11.5312 205.875 11.5312 198.4219 Q11.5312 192.6562 14.625 185.9062 Q17.7188 179.1562 17.7188 175.5 Q17.7188 168.8906 26.8594 162.5625 L26.8594 148.2188 Q26.8594 147.5156 28.4062 144.2812 Q31.3594 138.0938 37.6875 130.2188 Q39.7969 128.1094 43.7344 123.4688 Q44.8594 121.2188 47.3906 116.7188 Q56.1094 103.9219 73.9688 92.6719 Q89.8594 82.6875 106.875 77.625 Q109.2656 77.3438 114.0469 76.5 Q128.9531 73.4062 132.0469 73.4062 Q156.6562 73.4062 166.0781 77.625 Q167.7656 78.75 171.1406 80.8594 Q175.2188 83.1094 182.1094 84.6562 Q187.875 85.9219 197.8594 89.7188 Q202.5 90.5625 211.5 92.9531 Q218.9531 95.625 229.7812 101.5312 Q232.5938 103.0781 242.0156 110.8828 Q251.4375 118.6875 252.9844 120.9375 Q253.5469 122.625 259.0312 128.6719 Q260.5781 130.0781 266.9062 143.0156 Q273.2344 155.9531 273.2344 157.9219 L273.2344 169.4531 Q273.2344 170.1562 273.6562 171.5625 Q274.0781 172.9688 274.0781 173.6719 L274.0781 199.2656 Q274.0781 200.6719 274.7109 203.4844 Q275.3438 206.2969 275.3438 207.7031 ZM185.2031 105.4688 L185.2031 95.4844 Q184.2188 94.5 183.5156 94.5 Q182.3906 94.5 180.9844 95.9062 Q180.9844 98.8594 181.125 101.8125 Q181.5469 105.8906 183.7969 105.8906 L184.3594 105.8906 L185.2031 105.4688 ZM258.75 211.9219 L258.75 180 Q258.75 178.4531 257.9062 175.3594 Q257.0625 172.2656 257.0625 170.7188 L257.0625 158.3438 Q257.0625 154.4062 249.1875 141.75 Q238.9219 125.1562 224.2969 115.4531 Q217.5469 112.5 204.0469 106.4531 Q202.2188 110.5312 198.9844 113.2031 Q197.2969 114.6094 188.4375 115.4531 Q181.2656 116.1562 180 116.1562 Q174.7969 108.4219 174.7969 106.5938 Q174.7969 105.1875 174.9375 102.1641 Q175.0781 99.1406 175.0781 97.5938 Q171.5625 96.75 164.8125 94.3594 Q162.8438 93.0938 158.7656 90.8438 Q152.4375 88.1719 137.25 88.1719 Q136.125 88.1719 133.8047 87.9609 Q131.4844 87.75 130.3594 87.75 Q124.3125 87.75 109.8281 92.5312 Q96.6094 97.0312 89.8594 100.6875 Q84.6562 104.7656 75.7969 109.5469 Q71.2969 113.3438 63.1406 121.7812 Q59.4844 126.9844 51.6094 136.9688 Q41.3438 148.2188 41.3438 150.75 L41.3438 161.2969 Q41.3438 162.2812 39.7969 164.8125 Q38.25 167.3438 37.9688 168.0469 Q37.8281 169.4531 37.2656 172.4062 Q36 174.375 33.75 178.7344 Q27.8438 193.6406 27.8438 201.7969 Q27.8438 206.2969 29.1094 213.3281 Q30.7969 223.1719 30.9375 224.7188 Q30.7969 232.1719 32.9062 246.7969 Q33.8906 249.8906 36.8438 253.8281 Q40.9219 259.1719 41.625 260.4375 Q46.5469 269.5781 51.4688 278.7188 Q55.2656 284.7656 66.9375 293.625 Q71.1562 297.9844 80.1562 303.75 Q86.2031 304.5938 97.875 307.4062 Q103.2188 309.0938 113.625 312.8906 Q115.5938 314.2969 119.6719 316.125 Q121.3594 316.5469 125.7188 316.5469 L133.3125 316.5469 Q134.7188 310.2188 136.125 303.8906 Q138.6562 296.1562 144.7031 296.1562 Q143.1562 296.1562 151.0312 298.6875 Q153.4219 299.1094 155.7422 299.5312 Q158.0625 299.9531 159.4688 301.8516 Q160.875 303.75 165.375 315.2812 L168.8906 315.2812 Q175.3594 315.2812 188.5781 310.9219 Q192.5156 308.9531 200.8125 306.1406 Q203.4844 306 208.5469 305.0156 Q226.125 299.25 239.4844 277.5938 Q250.5938 259.4531 254.8125 237.9375 Q255.0938 233.8594 255.9375 225.5625 Q256.2188 223.7344 257.625 218.8125 Q258.75 214.5938 258.75 211.9219 ZM147.5156 309.6562 Q147.5156 305.5781 144.7031 305.5781 Q143.1562 305.5781 141.6797 308.4609 Q140.2031 311.3438 140.2031 313.1719 Q140.2031 313.875 141.3281 315.2109 Q142.4531 316.5469 143.1562 316.5469 Q147.5156 316.5469 147.5156 309.6562 ZM227.25 134.4375 L224.1562 134.4375 Q223.5938 134.4375 223.1016 133.9453 Q222.6094 133.4531 222.3281 133.4531 L222.3281 129.7969 Q224.7188 129.7969 227.25 129.375 L227.25 134.4375 ZM203.9062 133.0312 L198.9844 133.0312 L198.9844 128.1094 L203.9062 128.1094 L203.9062 133.0312 ZM249.75 201.375 Q247.0781 202.7812 246.7969 202.7812 Q243.8438 202.7812 243.8438 199.5469 Q243.8438 197.8594 245.25 196.4531 L249.75 196.4531 L249.75 201.375 ZM225.7031 169.0312 Q225.7031 174.6562 223.3125 179.7188 Q222.3281 181.8281 218.9531 183.6562 Q213.4688 186.6094 213.4688 186.6094 Q212.7656 186.0469 210.7969 183.375 Q196.7344 182.6719 196.7344 173.5312 Q196.7344 169.5938 203.6953 162.8438 Q210.6562 156.0938 214.7344 156.0938 Q215.4375 156.0938 217.0547 157.2188 Q218.6719 158.3438 219.0938 158.4844 Q219.5156 158.625 223.3125 158.7656 Q225.7031 160.7344 225.7031 169.0312 ZM155.9531 113.2031 Q155.9531 116.1562 153 116.1562 Q151.3125 116.1562 149.2031 114.8906 L149.2031 110.6719 Q151.1719 109.4062 153 109.4062 Q155.9531 109.4062 155.9531 111.2344 L155.9531 113.2031 ZM177.1875 139.3594 Q177.1875 143.7188 172.9688 143.7188 Q168.75 143.7188 168.75 139.5 Q168.75 135.2812 172.9688 135.2812 Q177.1875 135.2812 177.1875 139.3594 ZM183.9375 167.9062 Q183.0938 168.3281 182.3906 168.3281 L180.1406 168.3281 Q178.0312 168.3281 178.0312 166.0781 Q178.0312 164.8125 179.0156 163.8281 L183.9375 163.8281 L183.9375 167.9062 ZM212.4844 200.1094 Q210.6562 202.3594 207.4219 202.3594 L205.7344 202.3594 Q205.1719 202.3594 201.375 199.6875 L201.375 194.3438 Q203.9062 191.8125 205.7344 191.8125 L207.8438 191.8125 Q210.0938 191.8125 212.4844 193.9219 L212.4844 200.1094 ZM242.1562 233.2969 Q241.1719 234.1406 239.625 234.1406 Q238.6406 234.1406 236.8125 233.7188 Q234.9844 233.2969 234.1406 233.2969 Q233.7188 232.1719 233.7188 230.7656 L233.7188 228.375 Q234.8438 226.5469 237.2344 226.5469 L238.6406 226.5469 Q240.0469 226.5469 242.1562 228.7969 L242.1562 233.2969 ZM165.2344 162 L160.3125 162 Q159.3281 161.0156 159.3281 159.4688 Q159.3281 158.9062 160.7344 156.0938 L165.2344 156.5156 L165.2344 162 ZM245.5312 249.4688 Q244.125 250.3125 241.4531 252 L241.4531 249.75 Q241.4531 247.3594 242.8594 247.3594 L245.5312 247.3594 L245.5312 249.4688 ZM105.4688 119.3906 Q103.5 120.375 102.5156 120.375 Q101.3906 120.375 100.4062 119.3906 L100.8281 115.7344 L104.4844 115.7344 L105.4688 116.7188 L105.4688 119.3906 ZM133.875 133.7344 Q133.875 137.6719 129.5156 145.6875 Q127.5469 149.3438 123.0469 149.3438 Q124.875 149.3438 116.5781 146.3906 Q113.2031 145.8281 107.2969 143.5781 Q106.4531 143.0156 105.1172 140.2734 Q103.7812 137.5312 103.7812 136.5469 Q103.7812 135 119.1094 118.9688 Q121.0781 118.5469 122.7656 118.5469 Q123.0469 118.5469 123.6094 118.8281 Q133.875 122.4844 133.875 133.7344 ZM204.75 222.6094 Q202.0781 224.0156 201.6562 224.0156 Q201.5156 224.0156 198.8438 222.6094 L198.8438 218.1094 Q200.5312 217.2656 201.6562 217.2656 Q202.2188 217.2656 203.2031 217.6875 Q204.1875 218.1094 204.75 218.1094 L204.75 222.6094 ZM243.4219 266.3438 Q241.7344 267.1875 238.9219 267.75 Q238.6406 267.0469 238.3594 265.6406 Q239.9062 265.6406 241.0312 263.5312 L243.4219 263.5312 L243.4219 266.3438 ZM226.8281 252.4219 Q226.5469 252.2812 226.125 252.2812 Q223.5938 252.2812 223.875 255.7969 L218.3906 255.7969 L218.3906 250.4531 Q218.9531 250.4531 220.0078 250.1719 Q221.0625 249.8906 221.625 249.8906 Q221.3438 249.8906 223.7344 251.1562 Q223.875 250.7344 224.4375 250.0312 L226.8281 250.0312 L226.8281 252.4219 ZM231.4688 262.4062 Q226.125 262.4062 226.125 262.4062 L226.125 258.1875 Q227.8125 256.3594 229.5 256.3594 Q230.4844 256.3594 231.4688 257.3438 L231.4688 262.4062 ZM238.7812 272.8125 Q237.7969 272.6719 235.8281 272.3906 L235.8281 270 L238.7812 270 L238.7812 272.8125 ZM203.0625 240.8906 L202.0781 240.8906 Q200.8125 240.75 198.1406 240.4688 L198.1406 237.2344 L203.0625 237.2344 L203.0625 240.8906 ZM224.2969 271.9688 L219.7969 271.9688 L219.7969 268.3125 L224.2969 268.3125 L224.2969 271.9688 ZM230.2031 279.1406 L226.125 279.1406 Q224.7188 277.7344 224.7188 276.4688 Q224.7188 274.0781 227.1094 274.0781 Q227.5312 274.0781 230.2031 275.4844 L230.2031 279.1406 ZM206.4375 269.4375 Q205.875 269.5781 205.3125 269.5781 L203.0625 269.5781 Q202.6406 269.5781 201.9375 269.4375 Q201.0938 269.4375 200.6719 269.4375 L200.1094 268.875 L200.1094 264.7969 Q200.9531 263.9531 202.5 263.9531 L203.2031 263.9531 Q204.75 263.9531 206.4375 265.3594 L206.4375 269.4375 ZM137.6719 200.1094 Q135.8438 201.0938 135 201.0938 Q134.1562 201.0938 132.0469 200.25 Q129.9375 199.4062 129.2344 199.2656 L129.2344 196.1719 Q129.9375 196.5938 137.6719 196.3125 L137.6719 200.1094 ZM175.2188 215.1562 Q175.2188 219.375 172.5469 228.6562 Q169.7344 238.5 167.3438 241.0312 Q162.4219 239.9062 158.3438 236.5312 Q152.5781 231.6094 150.6094 230.4844 Q146.9531 229.2188 141.1875 225.9844 Q139.7812 224.7188 139.7812 221.9062 Q139.7812 218.9531 144.8438 213.0469 Q149.4844 207.7031 152.7188 206.0156 Q154.125 205.3125 156.375 205.3125 Q156.375 205.3125 162.1406 207.4219 Q164.6719 207.7031 169.4531 208.9688 Q169.7344 209.1094 175.0781 213.0469 Q175.2188 214.0312 175.2188 215.1562 ZM113.0625 181.5469 Q111.375 183.2344 110.25 183.2344 Q105.4688 183.2344 105.4688 179.5781 Q105.4688 175.6406 109.2656 175.6406 Q111.2344 175.6406 113.0625 177.3281 L113.0625 181.5469 ZM214.0312 290.25 L209.6719 290.25 Q207.4219 288.1406 207.4219 286.875 Q207.4219 283.9219 209.6719 283.9219 L214.0312 283.9219 L214.0312 290.25 ZM187.3125 262.9688 Q185.3438 263.9531 184.7812 263.9531 Q184.2188 263.9531 183.1641 263.4609 Q182.1094 262.9688 181.5469 262.9688 L181.5469 258.4688 Q183.2344 257.625 184.2188 257.625 L185.3438 257.625 Q186.3281 257.625 187.3125 258.6094 L187.3125 262.9688 ZM75.2344 158.0625 L74.6719 158.625 Q72.9844 158.3438 69.75 157.6406 L69.75 154.4062 Q70.3125 154.4062 71.5781 154.1953 Q72.8438 153.9844 73.4062 153.9844 Q74.25 153.9844 75.2344 154.8281 L75.2344 158.0625 ZM211.5 299.1094 L205.7344 299.1094 L205.7344 294.6094 Q206.2969 294.6094 207.4922 294.1172 Q208.6875 293.625 209.25 293.625 Q209.6719 293.625 211.5 294.6094 L211.5 299.1094 ZM183.5156 284.4844 Q183.5156 285.0469 180.4219 286.875 L179.0156 286.875 Q178.0312 285.3281 178.0312 283.6406 Q178.0312 281.9531 179.0156 280.9688 L183.0938 280.9688 Q183.0938 281.5312 183.3047 282.7266 Q183.5156 283.9219 183.5156 284.4844 ZM80.0156 185.2031 Q80.0156 185.7656 79.5234 186.75 Q79.0312 187.7344 79.0312 188.2969 Q78.0469 188.2969 75.9375 188.0859 Q73.8281 187.875 72.8438 187.875 Q72.2812 186.1875 72.2812 183.375 Q73.4062 181.5469 76.3594 181.5469 Q80.0156 181.5469 80.0156 185.2031 ZM155.5312 274.5 L153 274.5 L153 272.1094 L155.5312 272.1094 L155.5312 274.5 ZM180.9844 305.0156 Q179.8594 305.5781 178.4531 305.5781 Q176.4844 305.5781 175.0781 304.1719 Q175.5 301.3594 177.8906 301.3594 L178.7344 301.3594 Q180 301.3594 180.9844 302.3438 L180.9844 305.0156 ZM159.3281 284.625 L158.4844 284.625 Q157.2188 284.4844 154.6875 284.2031 L155.25 280.5469 L159.3281 280.5469 L159.3281 284.625 ZM146.9531 274.5 L144.1406 274.5 L144.1406 272.9531 L146.9531 272.9531 L146.9531 274.5 ZM77.7656 212.9062 Q76.6406 213.4688 74.8125 213.4688 Q72.4219 213.4688 71.4375 212.4844 L71.4375 209.25 Q72.9844 207.8438 74.8125 207.8438 Q76.7812 207.8438 77.7656 208.8281 L77.7656 212.9062 ZM121.5 263.5312 Q118.9688 265.0781 117.2812 265.0781 L114.75 265.0781 Q114.8906 264.7969 114.8906 258.4688 Q115.4531 258.4688 116.5078 258.2578 Q117.5625 258.0469 118.125 258.0469 Q120.0938 258.0469 121.5 259.3125 L121.5 263.5312 ZM95.2031 243.8438 Q94.2188 244.8281 92.6719 244.8281 Q91.125 244.8281 89.7188 243.4219 L89.7188 241.0312 Q91.6875 240.1875 92.3906 240.1875 L93.2344 240.1875 Q94.3594 240.1875 95.2031 241.0312 L95.2031 243.8438 ZM49.7812 195.75 Q49.7812 199.8281 45.5625 199.8281 L44.4375 199.8281 Q42.6094 199.8281 41.3438 198 L41.3438 193.5 Q42.4688 192.2344 44.4375 192.2344 L45.8438 192.2344 Q49.7812 192.2344 49.7812 195.75 ZM126.9844 288.1406 Q124.875 288.5625 120.7969 289.4062 Q119.3906 287.4375 119.3906 286.0312 Q119.3906 282.6562 123.0469 282.6562 L124.0312 282.6562 Q126 282.6562 126.9844 284.0625 L126.9844 288.1406 ZM100.6875 263.5312 L94.0781 263.5312 Q93.5156 262.9688 93.5156 261.4219 Q93.5156 257.625 98.0156 257.625 Q98.4375 257.625 99.3516 257.8359 Q100.2656 258.0469 100.6875 258.0469 L100.6875 263.5312 ZM129.6562 301.6406 Q128.5312 302.625 127.2656 302.625 Q126.8438 302.625 126.1406 302.3438 Q125.4375 302.0625 125.0156 302.0625 Q125.0156 301.3594 125.2266 299.8125 Q125.4375 298.2656 125.4375 297.5625 L129.0938 297.5625 L129.6562 297.9844 L129.6562 301.6406 ZM81.2812 235.5469 Q81.2812 238.2188 76.8516 245.1094 Q72.4219 252 70.0312 252 Q69.3281 252 67.9922 251.1562 Q66.6562 250.3125 65.9531 250.3125 Q65.25 250.3125 63.5625 251.3672 Q61.875 252.4219 61.0312 252.4219 Q58.0781 252.4219 53.0859 248.4141 Q48.0938 244.4062 48.0938 241.4531 Q48.0938 243.2812 49.2188 237.7969 Q49.3594 237.0938 49.3594 232.3125 Q49.3594 228.9375 50.7656 226.125 Q51.4688 226.125 53.0859 225.9141 Q54.7031 225.7031 55.5469 225.7031 Q67.9219 225.7031 76.7812 228.7969 Q81.2812 230.3438 81.2812 235.5469 ZM120.6562 306.8438 L117 306.8438 L116.0156 305.8594 L116.0156 303.0469 L120.6562 303.0469 L120.6562 306.8438 ZM127.4062 313.5938 L123.3281 313.5938 L123.3281 310.7812 L127.4062 310.7812 L127.4062 313.5938 ZM113.4844 308.1094 L109.8281 308.1094 L108.8438 307.125 L108.8438 303.4688 Q109.6875 303.1875 110.25 303.1875 L112.0781 303.1875 Q112.6406 303.1875 113.4844 303.4688 L113.4844 308.1094 ZM87.6094 285.1875 L81.2812 285.1875 L81.2812 279.7031 Q81.8438 279.7031 83.1094 279.4922 Q84.375 279.2812 85.0781 279.2812 Q86.625 279.2812 87.6094 280.6875 L87.6094 285.1875 ZM69.3281 276.6094 Q68.625 276.4688 66.7266 275.6953 Q64.8281 274.9219 63.9844 274.9219 Q63 274.9219 63.1406 275.7656 Q63 274.5 63 274.3594 L63 273.7969 Q63 271.5469 65.9531 271.5469 Q67.6406 271.5469 69.3281 272.9531 L69.3281 276.6094 ZM215.4375 165.6562 L215.4375 163.4062 L211.7812 163.4062 Q205.3125 170.8594 205.3125 171.9844 L205.3125 173.3906 Q205.875 173.8125 207.2812 174.375 L215.4375 165.6562 ZM121.9219 126.9844 Q121.3594 126.4219 120.375 126.4219 L113.4844 137.5312 Q114.4688 139.5 115.875 139.5 Q118.5469 139.5 121.9219 126.9844 ZM159.75 216.2812 L159.75 213.8906 Q157.7812 212.0625 156.375 212.0625 Q155.25 212.0625 152.1562 215.7188 L152.1562 218.1094 L154.125 218.1094 Q156.0938 217.5469 159.75 216.2812 ZM63 236.8125 Q63 235.6875 60.8906 233.9297 Q58.7812 232.1719 57.6562 232.1719 L55.4062 232.1719 Q55.4062 232.875 55.125 234.3516 Q54.8438 235.8281 54.8438 236.5312 Q54.8438 241.0312 58.2188 241.0312 Q59.625 241.0312 61.3125 239.625 Q63 238.2188 63 236.8125 Z" stroke="none" />
    </g>
  </g>
</svg>
