<svg xmlns="http://www.w3.org/2000/svg" xmlns:xlink="http://www.w3.org/1999/xlink" version="1.1" id="Layer_1" x="0px" y="0px" width="100.0px" height="100px" viewBox="0 0 216 216" enable-background="new 0 0 216 216" xml:space="preserve">
<path d="M108,32c3.077,0,6.081,0.128,8.981,0.37C116.986,32.247,117,32.125,117,32c0-4.971-4.029-9-9-9s-9,4.029-9,9  c0,0.125,0.014,0.247,0.019,0.371C101.918,32.128,104.922,32,108,32z"/>
<path d="M160.243,133.77c0.003-0.25,0.019-0.498,0.019-0.75c0-12.949-4.605-24.797-12.229-33.961v-0.176  c-0.221-0.189-0.434-0.39-0.649-0.587c-0.863-0.998-1.76-1.963-2.693-2.892c-3.521-4.42-5.641-10.066-5.641-16.227  c0-7.922,3.495-15.003,8.983-19.705V59H69.297v0.302c5.605,4.7,9.186,11.857,9.186,19.876c0,5.635-1.774,10.839-4.77,15.069  c-10.301,9.614-16.762,23.424-16.762,38.772c0,0.224,0.014,0.443,0.017,0.667c-0.163,3.63-0.255,7.306-0.255,11.029  c0,15.256,1.397,29.802,3.924,43.073c13.489,4.16,30.051,6.62,47.966,6.62c17.917,0,34.479-2.46,47.968-6.62  c2.527-13.271,3.924-27.817,3.924-43.073C160.494,141.021,160.404,137.373,160.243,133.77z M108,173c-19.882,0-36-16.118-36-36  c0-16.941,11.706-31.142,27.468-34.974C99.172,103.137,99,104.297,99,105.5c0,6.269,4.278,11.523,10.069,13.043  c0.69,6.81,6.439,12.123,13.431,12.123c0.443,0,0.881-0.024,1.314-0.066c2.092,4.748,6.832,8.066,12.353,8.066  c2.914,0,5.605-0.933,7.812-2.503C143.985,136.442,144,136.72,144,137C144,156.882,127.882,173,108,173z"/>
<path d="M88.035,44.937c-2.966,0.897-5.169,2.784-5.76,5.062h64.086c-7.661-5.379-21.966-9-38.361-9s-30.7,3.621-38.361,9h9.088  C79.84,47.12,83.57,44.991,88.035,44.937z"/>
</svg>